<svg xmlns="http://www.w3.org/2000/svg" viewBox="0 0 800 800">
  <defs>
    <radialGradient id="b" cx="400" cy="250" r="137.5">
      <stop offset=".3" stop-color="#f7c000" stop-opacity="0" />
      <stop offset=".4" stop-color="rgba(247, 191, 3, .06)" stop-opacity=".1" />
      <stop offset=".5" stop-color="rgba(247, 188, 11, .22)" stop-opacity=".2" />
      <stop offset=".7" stop-color="rgba(247, 185, 24, .48)" stop-opacity=".5" />
      <stop offset=".8" stop-color="rgba(248, 180, 42, .83)" stop-opacity=".8" />
      <stop offset=".9" stop-color="#f9b233" />
    </radialGradient>
    <clipPath id="a">
      <path fill="none" stroke-width="0" d="M0 0h800v800H0z" />
    </clipPath>
  </defs>
  <path fill="#9fdbe1" d="M0 0h800v800H0z" />
  <g fill="#ffe999" stroke-width="0" clip-path="url(#a)" opacity=".3">
    <path
      d="M420 136h-40l-20-336h80zm0 228h-40l-20 336h80zM286 230v40l-336 20v-80zm228 0v40l336 20v-80zm-181-75-28 28L53-40l57-57zm162 162-28 28 223 252 57-57zm-190 0 28 28-223 252-57-57zm162-162 28 28L747-40l-57-57zm-92-18-37 15-147-303 74-30zm87 211-37 15 110 318 74-30zm-175-73 15 37L-1 459l-30-74zm211-87 15 37 318-110-30-74zm-196 0-15 37-318-110 30-74zm211 87-15 37 303 147 30-74zm-175 73 37 15-110 318-74-30zm87-211 37 15 147-303-74-30z" />
  </g>
  <g stroke-width="0">
    <ellipse cx="400" cy="250" fill="#ffc900" rx="140" ry="135" />
    <ellipse cx="400" cy="250" fill="url(#b)" rx="140" ry="135" />
  </g>
  <g stroke-width="0">
    <path fill="#60c0d0"
      d="M777 218c-9-4-18-8-27-8-14 0-22 10-32 18-8 8-19 15-31 13-14-3-22-15-31-25-4-5-10-11-17-13-7-3-15-2-22 1-27 9-43 36-64 54-8 7-18 13-29 13-16-1-27-12-39-21-6-5-13-12-21-14-6-2-14-5-20-2-8 3-9 6-18 14-4 3-7 8-11 13-1 1-5 4-9 5-4 0-7-3-10-5l-11-11-7-11c-5-9-10-18-17-27-5-7-12-16-21-18s-17 3-23 8l-13 12-12 11c-17 16-31 34-51 47 0 1 0 1 0 0-8-7-14-16-20-24-10-13-22-28-39-32-22-5-41 11-56 24l-25 19c-11 8-23 14-34 20-22 12-44 23-67 31v487h800V232l-23-14Z" />
    <path fill="#2d5357"
      d="M176 221c0 3-2 7-4 11l12 2c10 2 13 13 18 21 1 1 0 4-1 5 0 2 2 4 4 4h3l1 1 3 1 7 2c3 2 3 3 4 7 0 5 8 5 12 2l5-5-19-24c-10-13-22-28-39-32l-6-1v6Zm163-27-2 3c-2 3-5 5-4 9 0 3 1 5 3 8l4 5c0 2 1 3-1 4l-4 4c-3 5 7 8 10 10 4 2-2 8 2 11 4 4 9-3 13-2h4l1-1 4 3v1h1a52 52 0 0 0 2 6l2 4 1 1v1c3 8 5 17 15 19 4 1 9 0 11-5 2-3 2-6 3-10-3 0-6-2-8-4l-11-11-7-11c-5-9-10-18-17-27-5-7-12-16-21-18h-1Zm117 44c-2 4-5 6-5 10-1 2 0 4 1 6 1 1 2 3 4 3l4-1c2 0 3 0 5 2l3 4 1 3c2 2 3 4 6 4h5l5 4 9 8c5 2 10 0 15-1l2-1a205 205 0 0 1 8-6l2-1 1-1c-15-2-26-12-37-21-6-5-13-12-21-14l-7-2-1 4Zm168-34c0 1-2 4-1 6l2 3c2 4-4 6-6 7l-2 1 1 4c1 2 2 4 5 4 5 0 10-4 15-6 0-1 0 0 0 0 1 9 5 18 13 23s16 5 25 4c5-1 11-3 13-7l1-2h-3c-14-3-22-15-31-25-4-5-10-11-17-13-4-2-9-2-14-2l-1 3Zm121 11-8 5c-2 2-5 8-2 10 3 3 7 2 10 2h12c4 1 6 4 7 8 1 3 2 6 4 7l9 3 20 1h3v-19l-23-14a58 58 0 0 0-30-8c0 2 0 4-2 5Z"
      opacity=".2" />
    <path fill="#59adc4"
      d="M800 385a355 355 0 0 1-80-12c-21-6-42-15-61-26l-43-32c-16-10-36-16-53-5-14 9-25 22-39 31a28 28 0 0 1-36 1c-12-9-19-22-29-32-6-5-13-9-21-9-9-1-17 2-24 7-13 9-23 22-36 31a43 43 0 0 1-45 0c-20-16-16-23-33-35-8-6-17-13-27-16-10-2-19-1-28 2-11 4-41 9-52 13l-38 13-75 21c-19 5-39 9-59 8v443h779"
      opacity=".5" />
    <path fill="#59adc4"
      d="M799 398a402 402 0 0 1-100-13c-21-6-42-15-61-26-15-10-28-23-43-32-16-10-36-16-53-5-14 9-25 22-39 31a28 28 0 0 1-36 1c-12-9-19-22-29-32-6-5-13-9-21-9-9-1-17 2-24 7-13 9-23 22-36 31a43 43 0 0 1-45 0c-20-16-16-23-33-35-8-6-17-13-27-16-10-2-19-1-28 2-11 4-41 9-52 13l-38 13-75 21c-19 5-39 9-59 8v443h800V398h-1Z" />
    <path fill="#2d5357"
      d="M255 310c-2 5-7 10-10 15-2 2-4 5-4 8 0 4 2 10 7 11 4 1 8-1 12-3l10-4c1-1 2-2 3-1l1 3 2 6c3 7 6 17 13 20 4 2 8 2 13 2 6 0 13 1 19-1 2-1 6-3 6-6v-4c-5-1-11-3-15-6-20-15-16-22-33-34-7-5-15-11-23-14 0 2 1 5-1 8Zm303 14-5 5c-2 1-3 3-3 5l2 4c3 2 4 2 7 1s8-3 10 0c2 4 1 7 0 10 0 2 1 4 4 5s5 0 7-1c5-3 8-7 14-6l5 2 5 4c6 1 12 3 18 2l6-3c-11-8-21-18-33-25-10-7-22-11-34-11 0 3-1 5-3 8Zm-142-7c-2 2-5 2-7 3s-4 1-4 3c-2 2-1 5-1 7 2 4 2 8 0 12 5 3 10 2 14-1 3-2 6-5 10-5 3 0 7 4 7 7 0 2-2 3-3 4-2 1-3 3-3 5l1 1 6 5 5 5 1 2 11 3c3 1 8 2 12 1 2 0 4-3 5-4l5-6v-1l-8-4c-12-9-19-22-29-32-6-5-13-9-20-9l-2 4Z"
      opacity=".1" />
    <path fill="#2d5357"
      d="M563 449c-43-17-86-35-131-48a559 559 0 0 0-221-22l-76 5c-45 2-91 1-135 8v408h800V523c-82-11-160-43-237-74Z"
      opacity=".3" />
  </g>
  <g stroke-width="0">
    <path fill="#84b1b5"
      d="M792 209c-18-8-33 9-44 20-6 6-12 11-19 15l-24 12c-7 4-13 10-19 16-7 8-12 17-17 26a47 47 0 0 1-16 18c-9 5-20 4-29 7-6 2-13 6-16 11-3 4-4 9-6 13-3 9-6 16-13 21-6 5-13 6-20 8a119 119 0 0 0-54 27l-14 11-14 7-19 10c-7 4-12 9-17 15-7 8-12 17-19 24-5 5-11 8-18 11l-24 6-32 10a362 362 0 0 1-149 13c-27-2-54-6-82-7-42-1-85 1-127 3v294h800V215l-8-6Z" />
    <path fill="#2d5357"
      d="M608 537c-4 3-10 4-14 5h-15c-16-4-9-23-9-34-1-5-2-11-5-16-2-4-6-8-11-8s-11 3-14 8l-6 15-7 11c-3 4-7 6-11 9-7 6-8 14-7 23 1 12 10 21 20 26 13 7 28 9 43 11 30 3 59 2 89 1 20-1 40 1 59 3 27 3 53 6 80 7v-66h-3c-9 3-18 3-27 4l-31 1c-7-1-17-1-23-5-5-3-5-9-5-14l-2-5-2-4-5-6-8-4c-4-2-9-3-13-6-9-5-15-14-21-22-6-7-13-17-23-18-8-2-14 7-17 14-3 8-6 17-7 25v26c1 7 1 14-5 19Zm114-166-12 1-12-1c-1 7 8 12 14 15l24 7 8 1h5c2 0 2-1 3-2 2-2 3-3 5-3l6 3 6 5c4 4 6 9 6 14 0 6-2 11-7 14-3 2-6 3-9 2s-6-4-9-4c-4 0-8 4-10 7-1 3-1 6-3 8-3 2-8 2-11 2-4 0-7-2-9-4-7-4-12-10-18-13-3-2-6-3-9-1-4 2-5 8-7 12-2 7-4 17 0 24 4 5 10 7 16 8 16 3 32 0 48-1 6-1 13-2 19-1a76 76 0 0 1 34 15V317c-4-1-8-2-11-1-6 2-7 10-6 15l2 19c0 3 0 8-4 8-3 1-6-1-8-2l-12-9c-1 6-3 10-9 11s-12-1-18-3c0 4 0 8-3 11-2 3-5 5-9 5Z"
      opacity=".3" />
    <path fill="#2d5357"
      d="m800 506-9 3c-2-8-6-26-18-21-11 4-14 17-14 27h-1c-11-7-25-4-34 4h-1c-1-8-5-18-16-15-8 2-13 10-13 18h-1c-5-15-25-6-34 0h-1c-2-5-5-11-11-12s-11 5-13 9h-1c-1-15-8-35-26-36-19-2-26 19-27 33h-1c-8-10-23-8-34-4-2-5-4-10-10-12-5-1-9 1-13 4h-1c0-4 1-10-3-13s-10-1-14 1h-1c1-6 0-14-4-19-3-4-8-5-12-4-13 3-18 17-19 28h-1c-2-4-4-8-8-9s-7 0-10 2c-6 3-11 9-13 16-3 7-2 15 0 22s6 14 12 19l-1 1c11 6 25 8 37 9l36 2 24 2 25 1c35 1 69 0 103-1h28l26 2a365 365 0 0 0 74-3" />
    <path fill="#2d5357"
      d="M1 554c26 2 52-1 77-3s49-7 74-12c22-3 45-6 67-1 12 3 23 9 35 12 12 4 25 6 38 6 26 1 52-6 77-12 22-5 44-9 63-20 19-10 34-26 53-36 9-5 19-8 28-11 7-2 14-4 18-10l8-16c5-8 10-14 18-19 4-1 7-4 11-4 5 0 10 3 13-1 4-3 6-8 9-11l11-5c9-3 19-4 27-8 10-4 16-12 20-21s5-21 15-25c7-3 15-3 23-4 7 0 15 0 21-4 8-4 14-11 19-18l13-20c15-25 33-55 61-65v-31l-8-6c-18-8-33 9-44 20-6 6-12 11-19 15l-24 12c-7 4-13 10-19 16-7 8-12 17-17 26a47 47 0 0 1-16 18c-9 5-20 4-29 7-6 2-13 6-16 11-3 4-4 9-6 13-3 9-6 16-13 21-6 5-13 6-20 8a119 119 0 0 0-54 27l-14 11-14 7-19 10c-7 4-12 9-17 15-7 8-12 17-19 24-5 5-11 8-18 11l-24 6-32 10a362 362 0 0 1-149 13c-27-2-54-6-82-7-42-1-85 2-127 3v48h1Z"
      opacity=".5" />
    <path fill="#2d5357"
      d="M395 501c6 1 13 2 19 1s13-3 17-7c3-4 4-10 8-13 3-4 9-5 13-6l5-4 3-4 5-9c0-1 0 0 0 0l1-1 2-1 5-2 9-6c9-7 19-13 29-18 6-3 10-5 14-10 4-3 6-7 9-11 3-3 7-8 11-10l7-3 23-10h14c8 1 16 2 23 0l4-2v-2a81 81 0 0 1-1-11c0-4 2-8 4-11 2-5 6-9 9-13s6-8 11-10l9-3 16-10 15-12c4-3 7-2 10 1 2 1 4 3 6 2 3-1 5-4 5-7l1-7 1-4v-3l-1-8c1-3 2-4 4-5 2-2 5-2 7-3 3-1 4-3 6-5 4-5 9-10 15-14l13-9c6-6 13-11 21-16 6-4 14-9 22-9 3 0 6 0 8 2l1 2h2v-15l-8-6c-18-8-33 8-44 20-6 6-12 11-19 15l-24 12c-7 4-14 9-19 16-7 8-12 17-17 26a47 47 0 0 1-16 18c-9 5-20 4-29 7-6 2-13 6-16 11-3 4-4 8-6 13-3 9-6 16-13 21-6 5-13 6-20 8a119 119 0 0 0-54 27l-15 11-13 7-19 10c-7 4-12 9-17 15-7 8-12 17-19 24-5 5-11 8-18 11l-24 6-20 6c8 4 16 7 25 8Z"
      opacity=".4" />
    <path fill="#659ea3"
      d="M772 538c-53 3-107 13-160 5l-43-5c-12-1-24-1-35-6-10-4-19-10-29-12-11-4-22-5-33-6-19-1-38-3-55-13-8-6-16-12-22-20l-14-26c-5-9-10-17-17-24-8-7-17-10-27-13-8-2-17-5-24-10s-13-13-14-22c-2-10 0-21-6-30-7-9-18-10-27-15-18-11-17-41-40-45-8-2-16-1-23-7s-8-14-11-23c-1-7-5-11-9-16l-12-4c-5-1-10-2-13-5l-11-10-11-13-6-5-7-1c-4 1-8 2-12 1-4-2-7-7-9-10-4-5-10-8-15-11l-11-7c-7-3-15-3-22 1-19 11-31 27-42 44L0 248v552h800V537l-28 1Z" />
    <path fill="#2d5357"
      d="M6 406c4 0 6 1 9-1s4-5 5-8l6-6 5-6c5-7 8-14 12-22l9-18 4-2 6 1c4 1 9 5 14 4 4 0 11-3 10-8l-2-9c1-4 3-7 5-9l8-12c1-2 3-4 3-8 0-3-2-7-5-9-6-6-16-6-24-4-8 1-18 4-22 11-3 8-4 19-14 19-4 0-8-2-10-5l-4-11-2-24c-1-8-1-16 3-23l7-7c3-1 6-1 8-3 4-3 4-9 3-13l-5-13-6-12-17 22-12 18v160l6-2Zm123-7c0-2 0-4-2-5-3-1-7 0-10 1l-8 4-6 6-13 13c-3 3-8 5-12 6-7 1-11 3-16 8l-6 12c-3 4-7 6-11 7-5 1-10-2-15-4-5-3-11-3-17-2-4 1-9 2-13 1v140l17-1h41l39 3a384 384 0 0 0 148-10c13-5 26-13 31-27 4-11 3-25-3-36-2-5-5-11-9-16-2-4-9 3-13-1-2-3-1-8-2-12 0-2-2-3-4-5l-3-5c-4-4-8-6-14-5-4 1-8 2-12 5l-8 7c-2 2-3 4-6 5-5 3-9-1-12-5-3-5-7-10-8-16l-2-12c-2-5-8-8-13-8-4 0-8 3-10 7-3 2-5 6-8 7-5 1-10 1-14-1-10-4-16-13-17-23-1-8 0-14 3-21 3-5 7-11 8-17Z"
      opacity=".3" />
    <path fill="#2d5357"
      d="m6 476-6 1v96l12 2 31 7c11 2 22 2 33 2l48-6 46-7c32-5 64-4 96-5 16-1 33-2 49-5 8-2 18-5 20-14 2-13-15-24-26-17-1-3-3-7-7-8l-9 2h-1c-1-8-6-16-14-17-9-2-15 4-18 12h-1c-2-3-6-6-10-6-4 1-7 4-10 6h-1c0-7-1-15-4-21-2-3-5-7-9-6-5 1-8 5-11 9-4 6-6 13-8 20h-1c-1-3-2-9-6-9-3 0-6 4-8 6h-1c-1-4-2-10-6-12h-8c-6 3-11 8-15 13h-1c0-10-5-22-16-25-12-2-16 11-17 21h-1c-2-5-5-10-11-10-5-1-10 3-14 7h-1c0-7 0-14-4-20-2-4-5-8-10-9-13-3-16 15-16 24h-1c-2-6-6-10-13-9-5 0-11 3-15 6h-1c0-5-1-12-6-14-6-3-11 2-14 7h-1c1-9-3-20-13-21Z" />
    <path fill="#2d5357"
      d="M75 206c0 12 3 25 12 34 8 9 19 14 29 19 8 3 18 6 24 12 7 7 4 18 6 26 2 10 6 19 13 26 6 7 14 12 22 17 9 7 20 13 21 26 1 16 1 33 16 44l19 13c9 7 13 16 21 24 3 4 8 8 13 10l12 5c8 4 12 13 16 20s8 15 14 21c7 7 17 12 25 18 15 11 30 24 46 33 20 10 42 13 63 17 20 4 43 8 60 20 15 11 27 25 43 33 10 6 21 9 32 10s22 0 33-1c12-1 23-3 35-2l31 6 32 9c11 3 22 5 33 5 19-1 35-10 51-18l3-2v-94l-28 1c-53 3-107 13-160 5l-43-5c-12-1-24-1-35-6-10-4-19-10-29-12-11-4-22-5-33-6-19-2-38-3-55-13-8-6-16-12-22-20l-14-26c-5-9-10-17-17-24-8-7-17-10-27-13-8-2-17-5-24-10s-13-13-14-22c-2-10 0-21-6-30-7-9-18-10-27-15-18-11-17-41-40-45-8-2-16-1-23-7s-8-14-11-23c-1-7-5-11-9-16l-12-4c-5-1-10-2-13-5l-11-10-11-13-6-5-7-1c-4 1-8 2-12 0-4-1-7-6-9-9-4-5-10-8-15-11l-11-7-4-1c2 6 3 14 3 22Z"
      opacity=".3" />
    <path fill="#2d5357"
      d="M772 538c-53 3-107 13-160 5l-43-5c-12-1-24-1-35-6-10-4-19-10-29-12-11-4-22-5-33-6-19-1-38-3-55-13-8-6-16-12-22-20l-14-26c-5-9-10-17-17-24-8-7-17-10-27-13-8-2-17-5-24-10s-13-13-14-22c-2-10 0-21-6-30-7-9-18-10-27-15-18-11-17-41-40-45-8-2-16-1-23-7s-8-14-11-23c-1-7-5-11-9-16l-12-4c-5-1-10-2-13-5l-11-10-11-13-6-5-7-1c-4 1-8 2-12 1-4-2-7-7-9-10l-9-7c1 7 3 15 7 22 1 2 3 6 6 7l9 4 18 12 19 11c6 3 11 7 18 8l9 3c4 3 7 7 8 11l3 18c2 12 11 19 22 24 9 5 19 9 26 17 7 9 10 20 13 31 1 6 2 11 5 16l3 7 3 3 3-1c3-1 6-4 10-2 2 1 3 4 4 6l2 3 3 3 12 15 16 17c5 5 10 11 17 15 6 3 11 4 16 8 4 3 7 8 9 14s4 11 9 16c5 4 11 6 17 9l14 12 22 31c3 6 7 11 12 15l12 13 7 7c20 4 43 8 60 20 15 10 27 25 43 33 10 6 21 9 32 10s22 0 33-1c12-1 23-3 35-2l31 6 32 9c11 3 22 5 33 5 19-1 35-10 51-18l3-2v-94l-29 1Z"
      opacity=".3" />
  </g>
  <g stroke-width="0">
    <path fill="#84b1b5"
      d="M759 649c-45-17-87-39-131-58a551 551 0 0 0-155-47 913 913 0 0 0-263-1c-29 5-57 14-84 23-42 14-83 30-126 41v193h800V663l-41-14Z" />
    <path fill="#f2daae"
      d="m467 623 3-1a141 141 0 0 0 29-9l4-3v-1l-2-2c-10-10-20-21-31-30-12-9-25-17-39-24l-37-17-28-1c18 12 36 23 53 36 19 15 37 31 48 52Z" />
    <path fill="#515357"
      d="m503 609-2-2c-10-10-20-21-31-30-12-9-25-17-39-24l-37-17h-6l14 6 17 9 18 10 15 9c18 12 33 27 45 44a41 41 0 0 0 6-4v-1Z"
      opacity=".2" />
    <path fill="#577579"
      d="m339 544 1 1v2a19 19 0 0 1 0 4v1l-1 1v1-1l-1-1a19 19 0 0 1 0-5l1-1v-2Zm-4 2v7l-1 1v-1l-1-3 1-2 1-2Zm-5-1v8l-1 1v-1l-1-4a12 12 0 0 1 2-4Zm-1 42v3h1a17 17 0 0 1 0 4v2l-1 1v-1l-1-1v-6l1-2Zm-6 3 1 1 1 2v3l-1 1-1-1v-2l-1-2v-1l1-1Zm12 1v1a8 8 0 0 1 0 5l-1 2v-2a8 8 0 0 1 0-5l1-1Zm51-5v1l1 1v1l1 2-1 3v2l-1-1v-2a12 12 0 0 1 0-4v-3Zm5 3 1 1v5l-1 1v-1l-1-2v-3l1-1Zm5-2 1 1v7l-1 1v-1l-1-3v-3l1-2Zm-149-34 1 2v2a17 17 0 0 1 1 3v1l-1 1v2l-1-2v-9Zm-6 3 1 1 1 3v4l-1-1v-2l-1-1v-4Zm12 1 1 1a8 8 0 0 1 0 6l-1 1v-1a8 8 0 0 1 0-6v-1Zm259 11h1v1l1 2v2l-1 3v2-1l-1-1v-1a12 12 0 0 1 0-4v-3Zm5 2 1 1v6l-1 1v-1l-1-3 1-3v-1Zm5-1 1 1v6l-1 2v-2l-1-3 1-3v-1Z" />
    <path fill="#3b6e7a" d="M606 575c-111 15-222 34-334 44-57 5-113 7-169 8H19l-19-1v174h800V560c-65 1-129 7-194 15Z" />
    <path fill="#f2daae"
      d="M691 594c3 9 1 19-8 24-8 5-19 6-29 6a240 240 0 0 0-85 17c-16 7-33 17-40 35v1l-2 2 8 2 24 7 24 6c4 1 9 1 12-2l5-10c1-4 4-8 7-12 6-8 15-13 25-17 11-4 21-6 32-7l29-2c8 0 18 0 25-5 9-6 10-17 9-26-2-20-14-43-35-47a1775 1775 0 0 0-21 3c9 6 17 15 20 25Z" />
    <path fill="#515357"
      d="M727 613c-2-20-14-42-35-47h-3c7 6 15 12 20 19s9 15 11 23c2 7 3 16-3 22-6 7-15 8-23 8l-19 1a243 243 0 0 0-64 12c-18 8-33 23-39 41l11 2c4 1 9 1 12-2l5-10c1-4 4-8 7-12 6-8 15-13 25-17 11-4 21-6 32-7l29-2c8 0 18 0 25-5 9-6 10-17 9-26Z"
      opacity=".2" />
    <path fill="#84b1b5"
      d="m467 618 1 1v2a19 19 0 0 1 0 4l-1 1v2l-1-2v-1a18 18 0 0 1 0-4l1-1a14 14 0 0 1 0-2Zm6 2 1 1v2a11 11 0 0 1-1 3v1l-1 1-1-1v-3l1-3 1-1Zm-12 1 1 1v7l-1-1-1-3 1-3v-1Zm318-37v5a14 14 0 0 1-2 5v-2a14 14 0 0 1 0-5l1-1 1-2Zm-6-1 1 2a18 18 0 0 1 0 8l-1 2-1-2a18 18 0 0 1 0-8l1-2Zm-6 2v1l1 1a27 27 0 0 1 0 2v5l-1-1v-2l-1-1v-3l1-1v-1Zm-154 4v5a14 14 0 0 1-2 5l-1-1a14 14 0 0 1 1-6l1-1 1-2Zm-6-1v2a18 18 0 0 1 0 8v2l-1-2a18 18 0 0 1 0-8l1-2Zm-6 2v2a27 27 0 0 1 1 2v5h-1v-2l-1-1v-5l1-1Zm140 47 1 2v1l1 2v5l-1-1-1-3v-3l-1-1 1-2Zm6-1v2a18 18 0 0 1 0 8v2l-1-2a18 18 0 0 1 0-8l1-2Zm6 2v2l1 1v2l-1 2v1l-1 1v-1l-1-2a10 10 0 0 1 1-3v-1l1-1v-1Z" />
    <path fill="#1b454c"
      d="M750 661c-28 4-57 3-85 4-55 0-111-2-167-9-50-6-100-15-147-32-43-15-84-35-126-53-41-19-84-37-129-46-32-6-64-8-96-4v279h800V653l-50 8Z" />
    <path fill="#f2daae"
      d="M265 673a193 193 0 0 0-11 10c-1 2 0 2 2 3l16 8 34 13 12 4c11-18 26-34 44-46 15-11 31-19 48-23l-54-16a207 207 0 0 0-91 46Z" />
    <path fill="#515357"
      d="M401 639c-12 4-19 9-30 12-11 4-21 10-30 17l-15 12-14 11-11 14a200 200 0 0 1 17 6c11-18 26-34 44-46 15-11 31-19 48-24l-9-2Z"
      opacity=".2" />
    <path fill="#3b6e7a"
      d="M265 609v1l1 2a19 19 0 0 1 0 3l-1 2v1h-1v-1a19 19 0 0 1 0-5v-2l1-1Zm-5 2 1 1v5l-1 2-1-2v-2l1-3v-1Zm-5-2 1 2v6l-1 2-1-2v-3a12 12 0 0 1 1-5Zm243 64 1 2v1a19 19 0 0 1 0 4l-1 1v2l-1-1v-2a18 18 0 0 1 0-4l1-1v-2Zm6 3v2a11 11 0 0 1 0 3v1h-1v1l-1-1v-3l1-2 1-1Zm-12 1 1 1a8 8 0 0 1-1 6v-1l-1-2 1-3v-1Zm131 17v3a19 19 0 0 1 0 4v1l-1 1v1-2a19 19 0 0 1-1-5l1-2v-1h1Zm-5 2v2l1 2-1 3v1l-1-1v-5l1-2Zm-5-1v1l1 3-1 4v1l-1-1v-4a12 12 0 0 1 1-4ZM35 536l1 1v5a17 17 0 0 1-2 5v-2a19 19 0 0 1 0-6l1-1a14 14 0 0 1 0-2Zm-5-5v7a25 25 0 0 1-1 7v-3a25 25 0 0 1 0-7v-2l1-2Zm-7 5 1 1v2a20 20 0 0 1 0 7v2l-1-2v-2a21 21 0 0 1-1-5v-1l1-1v-1Zm58 37 1 2v1l1 2v5l-1-1-1-4v-5Zm6-1 1 2a18 18 0 0 1 0 8l-1 2-1-2a18 18 0 0 1 0-8l1-2Zm6 2v1l1 1v3l-1 1v2l-1 1v-3a10 10 0 0 1 0-3v-1l1-1v-1Zm81 29 1 2 1 1a22 22 0 0 1 0 5 24 24 0 0 1 0 3l-1-1a16 16 0 0 1-1-6v-4Zm6 3v1l1 2a14 14 0 0 1 0 3v2l-1 1v-1l-1-2a14 14 0 0 1 0-3v-2l1-1Zm5-4v1l1 1v5l-1 4v1l-1 1v-11l1-1v-1Z" />
    <path fill="#577579"
      d="M653 710a565 565 0 0 1-292-13c-44-14-86-31-129-47-74-27-155-50-232-27v177h800V688c-50 2-99 12-147 22Z" />
    <path fill="#1b454c"
      d="M767 717v2l1 2-1 2a17 17 0 0 1-2 6v-2a19 19 0 0 1 1-6v-1a14 14 0 0 1 1-3Zm-6-4 1 2v1a38 38 0 0 0-1 8v2l-1-2a25 25 0 0 1 0-7v-2l1-2Zm-6 4v3l1 1a20 20 0 0 1 0 6l-1 2v-2h-1v-1a24 24 0 0 1 0-5v-2l1-2Zm-645-64 1 1v4a14 14 0 0 1-1 3v1l-1-1v-7l1-1Zm-5-6v2a29 29 0 0 1 0 10v3l-1-3a29 29 0 0 1 0-10l1-2Zm-5 7 1 2a9 9 0 0 1 0 5l-1 2v-2a9 9 0 0 1 0-5v-2Zm103 48v4a26 26 0 0 1-1 6v1l-1 1v-4a27 27 0 0 1 0-4l1-2 1-2Zm-6-3 1 2v2l-1 3a29 29 0 0 1-1 6v-2l-1-2v-2l1-3v-2l1-2Zm-5 3v13l-1-1v-1l-1-2v-6l1-1v-1l1-1Zm-147 4 1 2v3a14 14 0 0 1-1 3v2l-1-2v-3l1-3v-2Zm-5-6v3a29 29 0 0 1 0 10v2l-1-2a29 29 0 0 1 0-10l1-3Zm-5 8 1 1a9 9 0 0 1 0 6l-1 1v-1a9 9 0 0 1 0-6v-1Zm660 54v2h1v4l-2 4v1l-1-2a17 17 0 0 1 1-4v-4l1-1Zm-5 3v3a13 13 0 0 1 0 3v2l-1 1v-2l-1-1a13 13 0 0 1 1-5l1-1Zm-5-4v4l1 2-1 5v2-1l-1-1a23 23 0 0 1-1-6l1-1v-3l1-1Zm-104-14v5a26 26 0 0 1-1 5v1l-1 2v-3a19 19 0 0 1 0-3v-3l1-2 1-2Zm-6-3v7a29 29 0 0 1-1 7v-2l-1-3v-2l1-3v-2l1-2Zm-6 4v2l1 2v6l-1 1v1-1l-1-1v-9l1-1Zm-446 11 1 2v1a21 21 0 0 1 1 7v2l-1-2a18 18 0 0 1-2-6v-2l1-2Zm6-5v2l1 1v9l-1 2-1-2a25 25 0 0 1 0-7v-3l1-2Zm6 5 1 2v2a20 20 0 0 1 0 4l-1 1v3l-1-2v-2a24 24 0 0 1 0-4v-1a17 17 0 0 1 1-3Zm130-19 1 2v3a12 12 0 0 1 0 5l-1-2a11 11 0 0 1-1-3 13 13 0 0 1 1-5Zm6-5v2a29 29 0 0 1 0 10v2l-1-2a29 29 0 0 1 0-10l1-2Zm4 7 1 1a9 9 0 0 1 0 6l-1 1-1-1a9 9 0 0 1 0-6l1-1Zm85-13 1 2 1 2a23 23 0 0 1 1 5v4l-1-2-1-1a22 22 0 0 1-1-6v-4Zm6-3 1 2v1l1 1v3a27 27 0 0 1 0 5l-1 2-1-2a30 30 0 0 1 0-7v-5Zm6 3v1l1 1v2l1 1v3l-1 1v2l-1 1v1-1a21 21 0 0 1 0-2v-10Z"
      opacity=".6" />
  </g>
</svg>